<svg width="24" height="24" fill="none" xmlns="http://www.w3.org/2000/svg" class="css-v2jjng"><g clip-path="url(#a)" fill-rule="evenodd" clip-rule="evenodd" fill="wheat"><path d="M2.06 12c.956 2.532 4.095 7 9.94 7s8.984-4.468 9.94-7c-.956-2.532-4.095-7-9.94-7s-8.984 4.468-9.94 7zm-2.01-.311C.99 8.812 4.683 3 12 3c7.317 0 11.009 5.812 11.95 8.689a1 1 0 0 1 0 .622C23.01 15.188 19.317 21 12 21 4.683 21 .991 15.188.05 12.311a1 1 0 0 1 0-.622z"/><path d="M12 15a3 3 0 1 0 0-6 3 3 0 0 0 0 6zm0 2a5 5 0 1 0 0-10 5 5 0 0 0 0 10z"/></g><defs><clipPath id="a"><path fill="wheat" d="M0 0h24v24H0z"/></clipPath></defs></svg>