<svg xmlns="http://www.w3.org/2000/svg" viewBox="0 0 452.66 452.66" style="enable-background:new 0 0 452.66 452.66" xml:space="preserve" fill="#fff"><path d="M53.131 132.428c.236 0 .476-.017.717-.052l83.322-11.965c6.473-.935 13.1-1.408 19.697-1.408a138.3 138.3 0 0 1 36.857 5 5 5 0 1 0 2.665-9.639 148.303 148.303 0 0 0-39.522-5.361c-7.074 0-14.181.508-21.122 1.51l-83.318 11.964a5 5 0 0 0 .704 9.951zM258.936 124.003c18.515-5.119 37.542-6.327 56.558-3.591l83.318 11.964a5 5 0 0 0 1.422-9.898l-83.317-11.964c-20.387-2.934-40.794-1.638-60.645 3.851a5 5 0 1 0 2.664 9.638zM53.131 166.791c.236 0 .476-.017.717-.052l83.322-11.965c6.473-.935 13.1-1.408 19.697-1.408a138.3 138.3 0 0 1 36.857 5 5.001 5.001 0 0 0 2.665-9.639 148.303 148.303 0 0 0-39.522-5.361c-7.074 0-14.181.508-21.122 1.51L52.427 156.84a5 5 0 0 0 .704 9.951zM258.936 158.366c18.515-5.119 37.544-6.326 56.558-3.591l83.318 11.964a5 5 0 0 0 1.422-9.898l-83.317-11.964c-20.387-2.934-40.792-1.639-60.645 3.851a5 5 0 1 0 2.664 9.638zM53.131 201.154c.236 0 .476-.017.717-.052l83.322-11.965a138.39 138.39 0 0 1 56.554 3.592 5.001 5.001 0 0 0 2.665-9.639 148.292 148.292 0 0 0-39.522-5.361c-7.073 0-14.181.508-21.122 1.51l-83.318 11.964a5 5 0 0 0 .704 9.951zM258.936 192.729c18.516-5.119 37.547-6.326 56.558-3.591l83.318 11.964a5 5 0 0 0 1.422-9.898l-83.317-11.964c-20.39-2.934-40.794-1.638-60.645 3.851a5 5 0 1 0 2.664 9.638zM53.131 235.517c.236 0 .476-.017.717-.052L137.17 223.5c6.473-.935 13.1-1.408 19.697-1.408a138.3 138.3 0 0 1 36.857 5 5 5 0 1 0 2.665-9.639 148.303 148.303 0 0 0-39.522-5.361c-7.074 0-14.181.508-21.122 1.51l-83.318 11.964a5 5 0 0 0 .704 9.951zM258.936 227.092c18.515-5.119 37.542-6.327 56.558-3.591l83.318 11.964a5 5 0 0 0 1.422-9.898l-83.317-11.964c-20.387-2.934-40.794-1.638-60.645 3.851a5 5 0 1 0 2.664 9.638zM53.131 269.88c.237 0 .476-.017.717-.052l83.321-11.965a138.39 138.39 0 0 1 56.554 3.592 5 5 0 1 0 2.665-9.639 148.303 148.303 0 0 0-39.522-5.361c-7.073 0-14.181.508-21.122 1.51L52.426 259.93a5 5 0 0 0 .705 9.95zM258.936 261.455c18.516-5.119 37.547-6.326 56.558-3.591l83.318 11.964a5 5 0 0 0 1.422-9.898l-83.317-11.964c-20.39-2.934-40.794-1.638-60.645 3.851a5 5 0 1 0 2.664 9.638zM53.131 304.243c.236 0 .476-.017.717-.052l83.322-11.965a138.285 138.285 0 0 1 19.697-1.408 138.3 138.3 0 0 1 36.857 5 5.001 5.001 0 0 0 2.665-9.639 148.304 148.304 0 0 0-60.644-3.852l-83.318 11.964a5 5 0 0 0-4.238 5.66 5 5 0 0 0 4.942 4.292zM258.937 295.818c18.513-5.119 37.541-6.327 56.557-3.591l83.318 11.964a5 5 0 0 0 1.422-9.898l-83.317-11.964c-20.387-2.934-40.793-1.639-60.646 3.851a5 5 0 0 0 2.666 9.638zM156.866 325.181a138.3 138.3 0 0 1 36.857 5 5.001 5.001 0 0 0 2.665-9.639 148.303 148.303 0 0 0-39.522-5.361c-7.074 0-14.181.508-21.122 1.51l-83.318 11.964a5 5 0 0 0 1.422 9.898l83.322-11.965a138.521 138.521 0 0 1 19.696-1.407zM400.233 328.656l-83.317-11.964c-20.387-2.934-40.794-1.639-60.645 3.851a5 5 0 0 0 2.664 9.639c18.515-5.119 37.542-6.326 56.558-3.591l83.318 11.964a5 5 0 0 0 5.66-4.238 4.999 4.999 0 0 0-4.238-5.661z"/><path d="M447.66 117.57h-11.754V93.588a4.999 4.999 0 0 0-4.289-4.949L316.916 72.162a146.926 146.926 0 0 0-21.086-1.482V32.087a4.997 4.997 0 0 0-7.94-4.044l-13.56 9.861-13.56-9.861a5 5 0 0 0-7.94 4.044v44.96a147.913 147.913 0 0 0-26.5 10.856c-27.606-14.596-59.66-20.183-90.586-15.741L21.043 88.639a5 5 0 0 0-4.289 4.949v23.982H5a5 5 0 0 0-5 5v298.003a5 5 0 0 0 5.365 4.987l200.479-14.653h40.973l200.48 14.653a4.996 4.996 0 0 0 3.768-1.325 5 5 0 0 0 1.596-3.662V122.57a5 5 0 0 0-5.001-5zM315.494 82.06l110.412 15.86v275.228l-108.99-15.656c-29.076-4.177-59.15.514-85.586 13.222V96.573c25.673-13.486 55.439-18.639 84.164-14.513zM40.86 381.225l96.306-13.834c28.724-4.125 58.49 1.026 84.164 14.513v5.593c-15.627-7.113-33.281-10.597-53.71-10.597-9.91 0-20.334.805-31.968 2.476L40.86 394.904v-13.679zm169.8 12.685a96.232 96.232 0 0 1 13.249 6.055 5.003 5.003 0 0 0 4.842 0A97.017 97.017 0 0 1 242 393.888v7.019h-31.34v-6.997zm20.67-6.424v-5.582c25.675-13.487 55.443-18.639 84.164-14.513l96.306 13.834v13.68l-94.88-15.544c-34.978-5.017-62.441-2.439-85.59 8.125zm31.5-345.58 8.56 6.225a5 5 0 0 0 5.881 0l8.56-6.225V71.03a150.208 150.208 0 0 0-23 3.382V41.906zM26.754 97.921l110.412-15.86c28.724-4.126 58.49 1.026 84.164 14.513v274.152c-20.139-9.681-42.382-14.72-64.696-14.72-6.977 0-13.963.492-20.89 1.487l-108.99 15.656V97.921zM10 415.194V127.57h6.754v251.348a4.998 4.998 0 0 0 5.711 4.95l8.395-1.206v18.129a5.002 5.002 0 0 0 5.808 4.935l100.502-16.465c11.06-1.588 21.02-2.359 30.449-2.359 12.029 0 22.98 1.288 33.04 3.886v10.473L10 415.194zm432.66 0L252 401.259v-10.496c17.854-4.623 38.567-5.08 63.401-1.519l100.59 16.48a5.001 5.001 0 0 0 5.809-4.934v-18.129l8.396 1.206a5.003 5.003 0 0 0 5.711-4.949V127.57h6.754v287.624z"/></svg>