<svg xmlns="http://www.w3.org/2000/svg" viewBox="0 0 512 512" style="enable-background:new 0 0 512 512" xml:space="preserve"><path d="M123.586 119.228h79.448c5.297 0 8.828-3.531 8.828-8.828 0-5.297-3.531-8.828-8.828-8.828h-79.448c-5.297 0-8.828 3.531-8.828 8.828.001 5.297 3.532 8.828 8.828 8.828zM88.276 163.366h114.759c5.297 0 8.828-3.531 8.828-8.828 0-5.297-3.531-8.828-8.828-8.828H88.276c-5.297 0-8.828 3.531-8.828 8.828 0 5.297 3.531 8.828 8.828 8.828zM88.276 207.504h79.448c5.297 0 8.828-3.531 8.828-8.828 0-5.297-3.531-8.828-8.828-8.828H88.276c-5.297 0-8.828 3.531-8.828 8.828 0 5.297 3.531 8.828 8.828 8.828zM203.034 233.987h-79.448c-5.297 0-8.828 3.531-8.828 8.828 0 5.297 3.531 8.828 8.828 8.828h79.448c5.297 0 8.828-3.531 8.828-8.828 0-5.297-3.531-8.828-8.828-8.828zM88.276 295.78h114.759c5.297 0 8.828-3.531 8.828-8.828s-3.531-8.828-8.828-8.828H88.276c-5.297 0-8.828 3.531-8.828 8.828s3.531 8.828 8.828 8.828zM308.966 163.366h79.448c5.297 0 8.828-3.531 8.828-8.828 0-5.297-3.531-8.828-8.828-8.828h-79.448c-5.297 0-8.828 3.531-8.828 8.828 0 5.297 3.531 8.828 8.828 8.828zM308.966 119.228h123.586c5.297 0 8.828-3.531 8.828-8.828 0-5.297-3.531-8.828-8.828-8.828H308.966c-5.297 0-8.828 3.531-8.828 8.828 0 5.297 3.531 8.828 8.828 8.828zM432.552 278.125h-88.276c-5.297 0-8.828 3.531-8.828 8.828s3.531 8.828 8.828 8.828h88.276c5.297 0 8.828-3.531 8.828-8.828s-3.532-8.828-8.828-8.828zM308.966 251.642h79.448c5.297 0 8.828-3.531 8.828-8.828 0-5.297-3.531-8.828-8.828-8.828h-79.448c-5.297 0-8.828 3.531-8.828 8.828 0 5.297 3.531 8.828 8.828 8.828zM308.966 207.504h123.586c5.297 0 8.828-3.531 8.828-8.828 0-5.297-3.531-8.828-8.828-8.828H308.966c-5.297 0-8.828 3.531-8.828 8.828 0 5.297 3.531 8.828 8.828 8.828z"/><path d="M485.517 39.78h-15.89c-69.714-23.528-145.443-23.813-213.613-.04-67.409-23.773-146.543-23.488-213.642.04H0V428.194h317.793v61.793l44.138-33.545 44.138 33.545v-61.793H512V39.78h-26.483zM317.793 384.056h-35.31c12.359-3.531 23.834-7.062 35.31-9.71v9.71zm-89.558 0H47.669c52.128-22.905 112.743-22.471 180.566 0zm177.834-16.763.322.034c21.06 2.662 40.375 7.942 57.94 15.847l1.766.883h-60.028v-16.764zm58.262-310.74 1.766.883h1.766v307.2c-26.162-11.212-55.06-16.755-86.6-16.545-18.036-.051-36.966 1.93-56.407 5.952l-.563.141c-19.042 3.779-38.864 9.307-59.465 16.632V54.787c64.441-20.303 135.944-20.303 199.503 1.766zm-417.545 0c62.676-22.069 136.828-22.952 200.386-1.766v316.028a579.418 579.418 0 0 0-9.22-3.045c-70.021-23.909-133.516-25.794-188.58-4.362a209.538 209.538 0 0 0-5.235 2.11V57.435h1.766l.883-.882zm-29.131.882h8.828v326.621h-8.828V57.435zm0 353.104v-8.828h300.138v8.828H17.655zm370.759 44.138-26.483-19.421-26.483 19.421V370.815c18.538-3.531 36.193-4.414 52.966-4.414V454.677zm105.931-44.138h-88.276v-8.828h88.276v8.828zm-8.828-26.483V57.435h8.828v326.621h-8.828z"/></svg>