<svg xmlns="http://www.w3.org/2000/svg" viewBox="0 0 502.003 502.003" style="enable-background:new 0 0 502.003 502.003" xml:space="preserve"><path d="M438.215 255.508c9.078-.502 18.119 1.346 26.142 5.355 8.197 4.095 17.714 3.683 25.458-1.105 7.631-4.717 12.187-12.905 12.187-21.9V122.757c0-5.522-4.478-10-10-10H376.901c-2.8 0-4.266-1.694-4.89-2.704-.537-.867-1.631-3.189-.226-6.002 5.562-11.13 8.132-23.646 7.433-36.193-2.037-36.59-32.332-66.371-68.97-67.8-19.793-.779-38.509 6.342-52.741 20.031-14.24 13.694-22.082 32.114-22.082 51.866 0 11.321 2.559 22.16 7.609 32.218 1.365 2.718.291 4.989-.233 5.84-.633 1.025-2.115 2.744-4.937 2.744H122.757c-5.522 0-10 4.478-10 10v115.1c0 2.8-1.694 4.265-2.705 4.89-.866.537-3.188 1.63-6.001.226-11.129-5.56-23.638-8.134-36.191-7.434C31.27 237.576 1.488 267.87.058 304.507c-.772 19.777 6.341 38.509 20.03 52.743 13.695 14.24 32.115 22.083 51.868 22.083 11.321 0 22.16-2.559 32.218-7.609 2.722-1.365 4.99-.29 5.84.233 1.025.633 2.744 2.115 2.744 4.937v115.109c0 5.522 4.478 10 10 10h115.1c8.996 0 17.182-4.556 21.9-12.187 4.788-7.744 5.201-17.261 1.105-25.459-4.007-8.023-5.86-17.063-5.355-26.143 1.47-26.404 23.338-47.896 49.781-48.927 14.279-.555 27.823 4.577 38.099 14.462 10.282 9.888 15.945 23.189 15.945 37.451 0 8.177-1.844 15.998-5.482 23.245-4.083 8.13-3.677 17.593 1.085 25.313 4.729 7.666 12.938 12.243 21.958 12.243h115.108c5.522 0 10-4.478 9.999-10V376.894c0-9.02-4.577-17.229-12.243-21.958-7.72-4.762-17.181-5.167-25.313-1.086-7.248 3.638-15.069 5.483-23.246 5.483-14.262 0-27.562-5.663-37.451-15.946-9.884-10.277-15.02-23.808-14.462-38.1 1.033-26.443 22.525-48.309 48.929-49.779zm-48.882 101.743c13.695 14.239 32.115 22.082 51.867 22.082 11.321 0 22.16-2.559 32.22-7.609 2.718-1.366 4.988-.291 5.838.233 1.025.633 2.744 2.115 2.744 4.937v105.107H376.895c-2.823 0-4.304-1.719-4.937-2.744-.524-.851-1.596-3.121-.232-5.839 5.048-10.059 7.608-20.899 7.608-32.219 0-19.752-7.842-38.172-22.082-51.866-13.534-13.018-31.134-20.088-49.835-20.088-.965 0-1.936.019-2.907.055-36.637 1.429-66.933 31.21-68.971 67.8-.698 12.547 1.873 25.063 7.434 36.192 1.405 2.815.31 5.136-.226 6.003-.625 1.01-2.09 2.704-4.89 2.704H132.756V376.892c0-9.02-4.577-17.229-12.243-21.958-7.719-4.761-17.182-5.167-25.313-1.086-7.248 3.638-15.068 5.483-23.245 5.483-14.262 0-27.563-5.663-37.453-15.946-9.883-10.278-15.019-23.808-14.46-38.1 1.033-26.443 22.525-48.309 48.929-49.779 9.075-.502 18.119 1.346 26.141 5.355 8.196 4.094 17.713 3.683 25.458-1.104 7.632-4.718 12.188-12.905 12.188-21.901V132.755h105.107c9.02 0 17.229-4.577 21.958-12.243 4.762-7.718 5.168-17.182 1.086-25.313-3.638-7.248-5.483-15.068-5.483-23.245 0-14.262 5.663-27.562 15.945-37.451 10.277-9.883 23.806-15.025 38.099-14.462 26.444 1.031 48.31 22.523 49.78 48.927.506 9.081-1.345 18.12-5.354 26.144-4.096 8.197-3.683 17.714 1.105 25.458 4.717 7.631 12.905 12.187 21.9 12.187h105.101v105.1c0 2.8-1.694 4.266-2.704 4.89-.868.537-3.189 1.63-6.002.226-11.129-5.56-23.636-8.134-36.191-7.434-36.59 2.037-66.372 32.331-67.802 68.969-.773 19.777 6.342 38.509 20.03 52.743z"/><path d="M199.58 149.929h-39.65c-5.522 0-10 4.478-10 10s4.478 10 10 10h39.65c5.522 0 10-4.478 10-10s-4.478-10-10-10zM247.904 149.929h-11.151c-5.522 0-10 4.478-10 10s4.478 10 10 10h11.151c5.522 0 10-4.478 10-10s-4.478-10-10-10z"/></svg>