<svg xmlns="http://www.w3.org/2000/svg" width="98.254" height="98.254" style="enable-background:new 0 0 98.254 98.254" xml:space="preserve" fill="#a9a9a9"><path d="m95.893 84.496-32.481-32.48a8.036 8.036 0 0 0-7.088-2.235c9.044-12.216 8.036-29.584-3.027-40.647C41.12-3.043 21.308-3.043 9.132 9.133s-12.176 31.987 0 44.162c11.063 11.064 28.432 12.072 40.646 3.03a8.046 8.046 0 0 0 2.235 7.086l32.483 32.481a8.06 8.06 0 0 0 11.396.001 8.057 8.057 0 0 0 .001-11.397zm-50.29-38.892c-7.934 7.935-20.843 7.934-28.776 0-7.936-7.935-7.936-20.845 0-28.777 7.934-7.935 20.843-7.935 28.776 0 7.935 7.931 7.935 20.842 0 28.777z"/></svg>