<svg xmlns="http://www.w3.org/2000/svg" viewBox="0 0 417.2 417.2" style="enable-background:new 0 0 417.2 417.2" xml:space="preserve"><path d="M362.922 0H77.705c-25.607 0-46.44 20.833-46.44 46.44v324.33c0 12.401 4.832 24.062 13.604 32.835 8.767 8.767 20.428 13.594 32.836 13.594h285.217c12.689 0 23.013-10.323 23.013-23.013V23.013C385.935 10.323 375.612 0 362.922 0zm13.013 23.013v23.311C356.969 44.042 341.893 28.966 339.612 10h23.31c7.176 0 13.013 5.837 13.013 13.013zm-308 357.973h290v5.55h-290v-5.55zm290-10h-290v-5.55h290v5.55zm0-15.55h-290v-5.55h290v5.55zm0-15.55h-290v-4.215a36.346 36.346 0 0 1 9.77-1.341h280.23v5.556zM82.705 324.33V10h246.842c2.364 24.488 21.9 44.024 46.388 46.389v221.559c-24.485 2.364-44.02 21.898-46.387 46.382H82.705zM41.265 46.44c0-18.396 13.706-33.643 31.44-36.088v314.257c-12.71 1.367-23.903 7.872-31.44 17.403V46.44zm334.67 347.747c0 7.175-5.837 13.013-13.013 13.013H77.705c-9.737 0-18.887-3.788-25.765-10.666-6.884-6.884-10.676-16.034-10.676-25.764 0-12.809 6.649-24.087 16.67-30.587v51.354a5 5 0 0 0 5 5h300a5 5 0 0 0 5-5v-57.765a22.89 22.89 0 0 0 8-3.483v63.898zm-13.013-69.857h-23.31c2.284-18.963 17.358-34.036 36.322-36.318v23.305c.001 7.175-5.836 13.013-13.012 13.013z"/><path d="M315.074 73.87H143.566a5 5 0 0 0-5 5v67a5 5 0 0 0 5 5h171.509a5 5 0 0 0 5-5v-67a5 5 0 0 0-5.001-5zm-5 67H148.566v-57h161.509v57z"/><path d="M161.484 106.87h135.671a5 5 0 0 0 0-10H161.484a5 5 0 0 0 0 10zM161.484 127.87h135.671a5 5 0 0 0 0-10H161.484a5 5 0 0 0 0 10zM93.085 14.722a5 5 0 0 0-5 5v190.49a5 5 0 0 0 10 0V19.722a5 5 0 0 0-5-5zM366.071 263.21a5 5 0 0 0 5-5V103.718a5 5 0 0 0-10 0V258.21a5 5 0 0 0 5 5zM366.071 92.619a5 5 0 0 0 5-5V67.72a5 5 0 0 0-10 0v19.899a5 5 0 0 0 5 5zM351.072 276.71a5 5 0 0 0 5-5V168.215a5 5 0 0 0-10 0V271.71a5 5 0 0 0 5 5zM51.088 324.708a5 5 0 0 0 5-5V216.213a5 5 0 0 0-10 0v103.495a5 5 0 0 0 5 5zM109.585 14.722a5 5 0 0 0-5 5V60.22a5 5 0 0 0 10 0V19.722a5 5 0 0 0-5-5z"/></svg>