<?xml version="1.0" standalone="no"?>
<!DOCTYPE svg PUBLIC "-//W3C//DTD SVG 20010904//EN"
 "http://www.w3.org/TR/2001/REC-SVG-20010904/DTD/svg10.dtd">
<svg version="1.0" xmlns="http://www.w3.org/2000/svg"
 width="300.000000pt" height="300.000000pt" viewBox="0 0 300.000000 300.000000"
 preserveAspectRatio="xMidYMid meet">
<metadata>
Created by potrace 1.14, written by Peter Selinger 2001-2017
</metadata>
<g transform="translate(0.000000,300.000000) scale(0.100000,-0.100000)"
fill="#000000" stroke="none">
<path d="M0 2080 c0 -532 4 -919 9 -915 5 3 7 15 3 28 -5 21 -5 22 15 4 20
-17 21 -17 19 -1 0 10 9 23 21 29 13 7 20 16 15 21 -4 4 1 2 10 -5 10 -7 18
-9 18 -4 0 5 10 10 22 10 13 1 27 8 33 16 15 20 54 30 69 18 9 -8 13 -7 13 4
0 8 -4 12 -9 9 -4 -3 -8 -1 -8 4 0 5 19 12 42 15 22 3 53 15 68 26 15 11 31
17 35 13 3 -4 14 -7 23 -7 10 0 16 -6 14 -15 -2 -8 0 -11 5 -7 4 5 8 13 8 18
0 5 5 8 10 7 6 -2 9 -7 7 -11 -1 -5 2 -6 8 -2 6 3 8 11 4 16 -3 6 3 13 15 16
11 3 18 10 14 16 -3 6 -1 7 6 3 6 -4 9 -11 6 -16 -3 -5 0 -12 6 -16 7 -4 9 -3
6 3 -4 6 0 16 7 22 11 10 16 8 21 -10 7 -20 8 -20 17 -5 5 9 13 14 18 11 5 -3
11 -1 14 4 7 11 -13 9 -31 -2 -8 -5 -13 -3 -13 7 0 11 10 16 28 17 15 0 36 2
47 5 11 2 34 6 50 8 63 8 61 5 121 154 19 46 34 97 34 114 0 18 5 59 11 92 6
34 13 70 15 82 2 11 17 37 32 57 28 35 30 42 36 174 12 221 37 299 146 453 33
46 60 91 60 100 0 27 39 80 68 92 28 11 71 18 245 37 107 12 256 1 326 -24 73
-26 194 -117 227 -173 53 -88 87 -204 90 -312 4 -130 -11 -146 -20 -20 -7 110
-34 206 -86 309 -25 51 -40 66 -112 113 -96 64 -121 73 -243 88 -73 9 -112 8
-205 -5 -63 -8 -131 -15 -150 -16 -57 -1 -91 -28 -111 -87 -10 -29 -27 -65
-39 -80 -129 -169 -146 -217 -164 -460 -12 -169 -13 -173 -41 -202 -30 -31
-30 -31 -54 -211 -11 -86 -66 -223 -125 -311 -22 -33 -40 -75 -43 -99 -5 -31
-12 -43 -30 -50 -32 -12 -49 -56 -28 -79 17 -19 3 -40 -26 -40 -24 0 -49 -10
-49 -20 0 -5 8 -6 19 -3 13 3 20 -2 24 -19 10 -36 9 -38 -25 -38 l-33 -1 34
-14 c28 -13 31 -17 21 -30 -7 -9 -21 -13 -31 -10 -20 7 -28 -19 -9 -30 20 -13
8 -25 -52 -54 -112 -52 -190 -65 -214 -34 -12 17 -13 16 -14 -4 0 -38 39 -40
169 -7 50 13 56 12 75 -4 12 -11 52 -36 89 -56 47 -26 67 -42 63 -52 -6 -15
48 -20 141 -15 38 2 44 -1 61 -28 17 -28 20 -29 34 -15 21 21 58 10 58 -17 0
-11 7 -30 16 -43 10 -16 12 -26 5 -31 -16 -9 -13 -45 3 -45 14 0 51 -39 58
-62 3 -7 15 -7 43 1 21 6 40 9 42 8 1 -2 -4 -16 -12 -31 -19 -36 -19 -34 10
-28 14 2 25 2 25 -1 0 -14 -34 -37 -56 -37 -17 0 -24 -5 -24 -20 0 -12 -9 -24
-21 -29 -20 -7 -19 -9 16 -26 33 -15 44 -16 74 -5 20 7 52 24 71 40 39 30 93
60 110 60 5 0 10 -7 10 -15 0 -41 86 15 93 60 2 16 10 52 18 79 11 39 11 50 2
53 -7 3 -13 18 -13 34 0 21 4 27 16 22 13 -5 14 2 9 48 -4 30 -9 61 -12 69 -3
8 -11 39 -19 68 -19 72 -57 135 -106 173 -22 18 -44 44 -50 58 -11 29 -18 81
-11 81 3 0 45 -41 94 -91 49 -51 92 -89 95 -86 3 3 26 -1 51 -8 41 -12 44 -12
38 3 -20 49 -19 52 23 52 22 0 52 4 66 10 15 5 42 11 61 13 38 5 44 -7 20 -39
-16 -21 -19 -35 -7 -33 19 3 22 -3 11 -22 -6 -12 -7 -19 -1 -15 17 10 62 93
62 114 0 23 23 45 35 34 5 -4 5 -1 1 6 -4 6 -3 12 3 12 6 0 8 6 6 13 -3 6 5
23 16 37 l21 25 -6 -42 c-7 -45 -29 -101 -58 -145 -21 -31 -58 -166 -58 -212
0 -27 1 -28 13 -12 12 17 15 11 25 -52 14 -85 15 -117 3 -140 -69 -136 -79
-186 -43 -225 11 -12 22 -30 24 -41 1 -10 13 -25 26 -34 21 -14 22 -13 22 15
0 17 9 38 20 48 19 17 20 17 21 -1 0 -17 1 -17 16 4 21 30 31 28 48 -10 14
-32 14 -32 15 -7 0 36 10 42 35 19 20 -18 65 -19 65 0 0 4 23 10 50 14 28 4
50 10 50 15 0 5 15 12 32 16 l33 8 -35 6 c-19 4 -45 13 -57 20 -24 12 -31 31
-12 31 6 0 29 12 51 27 38 27 39 29 34 76 -6 54 14 63 25 11 4 -19 7 -22 8 -9
0 11 10 28 20 37 23 20 18 54 -10 61 -10 3 -19 11 -19 17 0 7 7 10 15 6 8 -3
16 -2 16 2 1 4 3 22 5 40 5 44 30 102 45 102 6 0 36 -25 65 -55 30 -30 60 -55
67 -55 9 0 13 14 13 43 l-1 42 73 9 c82 9 87 20 9 22 -77 2 -77 2 -75 30 2 20
6 24 23 19 11 -4 49 -8 85 -10 62 -3 63 -3 22 6 -23 6 -40 14 -37 20 4 5 -7 9
-24 9 -38 0 -81 19 -81 37 0 7 -9 13 -20 13 -11 0 -20 7 -20 15 0 12 4 13 19
5 31 -16 37 -12 13 10 -27 25 -30 55 -4 46 11 -4 9 1 -7 14 -13 11 -25 32 -27
47 -4 42 -46 146 -71 178 -32 40 -74 158 -80 223 -4 46 -7 52 -24 47 -25 -8
-36 35 -19 76 16 37 35 24 21 -13 -11 -29 -6 -38 20 -38 20 0 29 -20 29 -68 0
-57 33 -152 67 -192 25 -30 77 -146 87 -196 6 -26 18 -37 69 -64 42 -22 91
-62 153 -126 76 -78 98 -109 138 -191 66 -137 84 -168 96 -166 5 2 10 -2 10
-8 0 -5 4 -8 9 -5 4 3 6 -6 3 -19 -3 -17 1 -27 12 -31 9 -3 16 -11 16 -16 0
-6 7 -16 17 -23 9 -7 17 -23 19 -36 1 -13 3 -27 3 -31 1 -5 10 -8 22 -8 11 0
17 -5 14 -10 -4 -6 -10 -8 -14 -6 -4 3 -8 -1 -8 -9 0 -11 4 -12 14 -4 20 17
29 -18 9 -40 -13 -15 -14 -18 -1 -18 8 0 12 4 9 8 -2 4 0 10 6 14 7 4 10 451
10 1351 l0 1344 -1500 0 -1500 0 0 -920z m1665 456 c28 -13 57 -30 65 -37 8
-8 36 -29 61 -47 41 -29 102 -112 83 -112 -4 0 3 -8 14 -19 12 -10 19 -21 15
-24 -3 -4 0 -13 7 -22 7 -9 10 -18 7 -21 -2 -3 1 -29 9 -57 13 -48 19 -158 7
-129 -9 24 -30 13 -25 -14 4 -23 2 -24 -22 -18 -17 4 -26 2 -26 -6 0 -9 -10
-10 -32 -5 -73 15 -119 16 -153 5 -40 -13 -50 -27 -60 -90 -6 -37 -5 -43 6
-32 18 17 32 15 25 -3 -7 -20 3 -19 27 2 18 17 19 17 32 0 18 -25 71 -22 86 4
l11 21 19 -21 c22 -24 21 -23 43 -15 14 5 14 9 1 34 -8 15 -22 30 -31 34 -13
5 -14 3 -6 -6 8 -10 -6 -13 -69 -13 -75 0 -79 1 -60 16 11 9 18 19 15 22 -9 8
31 18 88 22 73 4 135 -13 141 -39 15 -60 35 -119 37 -106 1 8 10 -7 20 -35 18
-46 19 -47 14 -12 -4 24 -2 37 5 37 6 0 11 10 11 23 0 12 4 28 8 35 5 7 9 -43
10 -110 1 -93 -2 -128 -14 -145 -19 -30 -54 -31 -55 0 -1 20 -2 19 -14 -8 -9
-19 -12 -59 -11 -110 5 -128 -31 -212 -136 -324 -31 -33 -65 -72 -74 -86 -15
-24 -85 -62 -129 -71 -66 -14 -100 -15 -147 -3 -29 7 -59 12 -66 11 -7 -2 -15
4 -18 13 -3 8 -12 15 -19 15 -17 0 -140 144 -179 210 -44 75 -65 141 -73 228
-5 64 -9 75 -33 92 -21 15 -29 31 -34 67 -4 27 -16 79 -28 116 -11 38 -17 71
-14 74 3 4 6 0 6 -8 0 -8 9 -20 20 -27 18 -11 20 -10 20 8 0 11 5 19 11 17 21
-4 30 57 24 159 -4 80 -2 104 9 113 7 6 17 30 20 54 12 75 59 179 97 217 81
78 108 94 198 112 47 9 98 17 113 18 15 0 30 5 33 10 10 17 57 11 110 -14z
m458 -504 c15 -19 29 -45 32 -56 2 -12 11 -51 19 -87 19 -79 20 -102 4 -97
-10 4 -30 72 -53 184 -3 11 -16 33 -30 48 -14 16 -25 38 -24 54 0 25 1 25 12
8 7 -10 24 -34 40 -54z m-1083 -96 c0 -2 -7 -6 -15 -10 -8 -3 -15 -1 -15 4 0
6 7 10 15 10 8 0 15 -2 15 -4z m1155 -198 c4 -24 2 -54 -4 -68 -9 -23 -10 -23
-10 -4 -1 12 -4 42 -7 68 -5 30 -3 46 4 46 6 0 14 -19 17 -42z m-1525 -641
c-14 -6 -31 -20 -39 -30 -15 -21 -37 -8 -28 17 6 14 31 23 72 24 17 1 16 -1
-5 -11z m56 -301 c17 -18 18 -27 2 -22 -7 3 -25 7 -39 10 -15 3 -30 13 -33 22
-5 14 -1 16 24 10 17 -3 38 -12 46 -20z m1674 -32 c0 -8 -5 -12 -10 -9 -6 4
-8 11 -5 16 9 14 15 11 15 -7z m-1700 -24 c0 -5 -2 -10 -4 -10 -3 0 -8 5 -11
10 -3 6 -1 10 4 10 6 0 11 -4 11 -10z"/>
<path d="M1210 2021 l-65 -6 39 -18 c21 -9 48 -17 60 -18 14 0 16 -2 6 -6 -30
-9 -60 -27 -60 -34 0 -4 22 2 49 13 35 15 58 19 85 14 52 -10 44 -24 -13 -24
-58 -1 -155 -43 -113 -50 13 -2 30 2 38 9 11 9 18 8 32 -5 25 -22 58 -20 75 5
14 20 16 20 41 4 17 -11 26 -13 26 -5 0 7 8 9 20 5 34 -11 25 39 -13 82 -30
32 -40 36 -88 38 -30 2 -83 0 -119 -4z"/>
<path d="M1587 1585 c-20 -14 -42 -23 -47 -20 -6 3 -10 1 -10 -4 0 -17 36 -13
51 5 7 9 21 13 33 10 12 -3 28 -1 36 4 13 9 13 11 0 20 -20 13 -20 13 -63 -15z"/>
<path d="M1435 1590 c-4 -6 7 -10 27 -10 25 0 29 3 18 10 -19 13 -37 13 -45 0z"/>
<path d="M1581 1450 c-30 -5 -61 -6 -69 -2 -10 3 -13 1 -8 -6 5 -8 33 -11 84
-8 42 1 82 -1 88 -6 14 -10 7 -48 -9 -48 -6 0 -8 -3 -4 -6 7 -7 107 54 107 66
0 4 -24 10 -52 14 -60 7 -62 7 -137 -4z"/>
<path d="M1314 1441 c-9 -10 -3 -31 9 -31 7 0 18 -5 25 -12 6 -6 21 -13 32
-15 15 -2 19 2 17 20 -2 20 2 22 43 22 25 1 44 4 43 9 -3 8 -161 14 -169 7z"/>
<path d="M606 1378 c3 -5 10 -6 15 -3 13 9 11 12 -6 12 -8 0 -12 -4 -9 -9z"/>
<path d="M345 1320 c-4 -6 -10 -8 -15 -5 -4 3 -13 -2 -20 -10 -7 -8 -17 -12
-23 -8 -6 3 -7 1 -3 -6 6 -8 12 -9 20 -2 7 6 15 9 18 6 3 -3 13 4 23 15 10 11
15 20 12 20 -3 0 -9 -5 -12 -10z"/>
<path d="M125 1230 c-3 -6 1 -7 9 -4 18 7 21 14 7 14 -6 0 -13 -4 -16 -10z"/>
<path d="M66 1198 c3 -5 10 -6 15 -3 13 9 11 12 -6 12 -8 0 -12 -4 -9 -9z"/>
<path d="M2518 903 c6 -2 18 -2 25 0 6 3 1 5 -13 5 -14 0 -19 -2 -12 -5z"/>
<path d="M2899 423 c-13 -16 -12 -17 4 -4 9 7 17 15 17 17 0 8 -8 3 -21 -13z"/>
<path d="M2915 409 c-4 -6 -5 -12 -2 -15 2 -3 7 2 10 11 7 17 1 20 -8 4z"/>
<path d="M100 283 c-14 -3 -30 -9 -37 -15 -7 -5 -17 -7 -22 -4 -5 4 -12 2 -16
-4 -4 -6 -11 -8 -16 -5 -5 4 -9 -46 -9 -125 l0 -130 288 2 287 3 3 29 c9 75
-70 186 -161 227 -44 20 -69 24 -172 25 -66 0 -131 -1 -145 -3z"/>
<path d="M681 264 c0 -11 3 -14 6 -6 3 7 2 16 -1 19 -3 4 -6 -2 -5 -13z"/>
<path d="M2121 245 c-15 -20 -25 -24 -43 -20 -17 4 -29 1 -39 -11 -13 -15 -12
-16 10 -9 15 4 26 3 31 -5 5 -7 20 -9 44 -4 27 5 34 10 27 17 -18 18 -13 37
12 47 l22 9 -22 0 c-12 1 -31 -10 -42 -24z"/>
<path d="M657 193 c-9 -21 -21 -56 -28 -78 -6 -22 -20 -57 -31 -77 l-18 -38
35 0 c32 0 35 3 35 28 0 15 7 65 15 111 8 47 13 86 11 88 -1 2 -10 -14 -19
-34z"/>
</g>
</svg>
